<?xml version="1.0" encoding="utf-8"?>
<!-- Generator: Adobe Illustrator 25.4.1, SVG Export Plug-In . SVG Version: 6.00 Build 0)  -->
<svg version="1.1" id="Layer_1" xmlns="http://www.w3.org/2000/svg" xmlns:xlink="http://www.w3.org/1999/xlink" x="0px" y="0px"
	 viewBox="0 0 17.2 15.7" style="enable-background:new 0 0 17.2 15.7;" xml:space="preserve">
<g id="Group_764" transform="translate(860.131 -88.069)">
	<path id="Path_212" d="M-845.4,98.5l-1.6-1.3l2,0.4C-844.3,97.8-844.9,98.8-845.4,98.5L-845.4,98.5z M-858,98.3l4.7-5.4
		c0,0,0.1-0.1,0.1-0.1l0.4-1.3c0.1-0.3,0.4-0.5,0.6-0.4c0.1,0,0.2,0.1,0.3,0.2l1.8,2.7c0.3-0.2,0.6-0.3,1-0.3c1,0,1.8,0.8,1.8,1.8
		c0,0,0,0,0,0c0,0.6-0.3,1.1-0.8,1.5l1.4,2.1c0.2,0.2,0.2,0.6-0.1,0.8c-0.1,0.1-0.3,0.1-0.4,0.1l-1.9-0.2c-0.1,0-0.2,0-0.2-0.1
		l-0.7,0.2c0.5,1.1,0.1,2.4-0.9,3.1c-1.1,0.8-2.7,0.5-3.4-0.7c-0.2-0.3-0.3-0.5-0.4-0.8l-1.1,0.4c-0.1,0-0.1,0-0.2,0
		c-0.9,0.6-2.1,0.2-2.7-0.7c-0.5-0.9-0.3-2,0.5-2.6C-858.1,98.4-858,98.4-858,98.3L-858,98.3z M-853.5,96.2c0.9,0,1.6,0.7,1.6,1.6
		s-0.7,1.6-1.6,1.6c-0.9,0-1.6-0.7-1.6-1.6C-855.1,96.9-854.4,96.2-853.5,96.2z M-856.7,101l-0.9-1.4c-0.3,0.4-0.3,0.9,0.1,1.3
		C-857.3,101-857,101.1-856.7,101L-856.7,101z M-850.9,100.2l-2.7,0.9c0.1,0.8,0.9,1.3,1.6,1.2c0.2,0,0.4-0.1,0.6-0.2
		C-850.8,101.6-850.6,100.8-850.9,100.2L-850.9,100.2z M-852.9,94.1l-4,4.6l1.3,1.9l5.8-1.9L-852.9,94.1L-852.9,94.1z M-849.6,90.5
		l-0.3,2l-0.6-1.9C-850.7,89.9-849.5,89.9-849.6,90.5L-849.6,90.5z M-847,91.3l-1.3,1.6l0.4-2C-847.7,90.2-846.7,90.8-847,91.3
		L-847,91.3z M-845.2,93.2L-847,94l1.3-1.5C-845.3,92-844.6,93-845.2,93.2z M-844.6,95.9l-2-0.3l1.9-0.6
		C-844,94.8-844,96-844.6,95.9L-844.6,95.9z"/>
</g>
</svg>
