<svg id="Layer_1" data-name="Layer 1" xmlns="http://www.w3.org/2000/svg" viewBox="0 0 11.66 13.58"><defs><style>.cls-1{fill:#fff;}</style></defs><g id="Group_765" data-name="Group 765"><path id="Path_891" data-name="Path 891" class="cls-1" d="M12.64,5.06l.16-4A.72.72,0,0,0,12.09.3h0l-4,.17a.61.61,0,0,0-.39.17L1.3,7a.63.63,0,0,0,0,.89h0l3.86,3.86a.66.66,0,0,0,.91,0l6.35-6.36A.52.52,0,0,0,12.64,5.06ZM10.86,3a.81.81,0,1,1,.81-.81.8.8,0,0,1-.81.81Z" transform="translate(-1.13 -0.3)"/><path id="Path_892" data-name="Path 892" class="cls-1" d="M11.34,7.29l-5.22,5.2c-.18.23-.57.19-.91-.05L1.94,9.19l-.38.55a.66.66,0,0,0,.21.89l4.47,3.11a.64.64,0,0,0,.9-.11h0l4.31-6.21A.09.09,0,0,0,11.34,7.29Z" transform="translate(-1.13 -0.3)"/></g></svg>