<svg xmlns="http://www.w3.org/2000/svg" width="11.662" height="13.577" viewBox="0 0 11.662 13.577">
  <g id="Group_765" data-name="Group 765" transform="translate(-29.92 -24.397)">
    <path id="Path_891" data-name="Path 891" d="M41.427,29.159l.154-4.025a.721.721,0,0,0-.737-.737l-4.008.171a.639.639,0,0,0-.394.171l-6.355,6.337a.634.634,0,0,0,.051.908l3.854,3.854a.649.649,0,0,0,.908.051l6.355-6.355A.55.55,0,0,0,41.427,29.159Zm-1.781-2.09a.805.805,0,1,1,.805-.805A.8.8,0,0,1,39.645,27.069Z" transform="translate(0 0)" fill="#253858"/>
    <path id="Path_892" data-name="Path 892" d="M41.7,65.092,36.475,70.3c-.171.223-.565.188-.908-.051L32.3,66.993l-.377.548a.651.651,0,0,0,.206.891l4.47,3.117a.645.645,0,0,0,.908-.12l4.316-6.218C41.888,65.126,41.768,65.023,41.7,65.092Z" transform="translate(-1.575 -33.706)" fill="#253858"/>
  </g>
</svg>
