<svg id="Layer_1" data-name="Layer 1" xmlns="http://www.w3.org/2000/svg" viewBox="0 0 20.74 11.67"><defs><style>.cls-1{fill:#fff;}</style></defs><g id="Group_3" data-name="Group 3"><path id="Path_213" data-name="Path 213" class="cls-1" d="M19.39,5.59a3.38,3.38,0,0,1-2.21.8A3.49,3.49,0,0,1,15,5.61a4.48,4.48,0,0,0-.87,1,6.85,6.85,0,0,1,1.79,4.05c.39,0,.83,0,1.29,0a12.32,12.32,0,0,0,3.67-.5.47.47,0,0,0,.33-.48A5.9,5.9,0,0,0,19.39,5.59Z" transform="translate(-0.46 -0.56)"/><circle id="Ellipse_7" data-name="Ellipse 7" class="cls-1" cx="16.72" cy="2.36" r="2.36"/><path id="Path_214" data-name="Path 214" class="cls-1" d="M6.65,5.59a3.38,3.38,0,0,1-2.19.78,3.46,3.46,0,0,1-2.18-.78A5.81,5.81,0,0,0,.46,9.72a.52.52,0,0,0,.33.48,13,13,0,0,0,3.67.5c.46,0,.9,0,1.29,0a6.94,6.94,0,0,1,1.79-4A5.1,5.1,0,0,0,6.65,5.59Z" transform="translate(-0.46 -0.56)"/><circle id="Ellipse_8" data-name="Ellipse 8" class="cls-1" cx="4" cy="2.36" r="2.36"/><path id="Path_215" data-name="Path 215" class="cls-1" d="M13,7.09a3.42,3.42,0,0,1-4.37,0,5.91,5.91,0,0,0-1.82,4.16.52.52,0,0,0,.33.48,13.65,13.65,0,0,0,7.34,0,.48.48,0,0,0,.33-.48A5.74,5.74,0,0,0,13,7.09Z" transform="translate(-0.46 -0.56)"/><circle id="Ellipse_9" data-name="Ellipse 9" class="cls-1" cx="10.36" cy="3.87" r="2.36"/></g></svg>