<svg xmlns="http://www.w3.org/2000/svg" width="20.738" height="11.668" viewBox="0 0 20.738 11.668">
  <g id="Group_3" data-name="Group 3" transform="translate(-2.6 -23.3)">
    <path id="Path_213" data-name="Path 213" d="M70.366,46.3a3.38,3.38,0,0,1-2.207.808,3.467,3.467,0,0,1-2.185-.787,4.438,4.438,0,0,0-.874,1.027,6.848,6.848,0,0,1,1.792,4.042c.393.022.83.044,1.289.044a12.509,12.509,0,0,0,3.671-.5.473.473,0,0,0,.328-.481A5.893,5.893,0,0,0,70.366,46.3Z" transform="translate(-48.844 -17.974)" fill="#253858"/>
    <circle id="Ellipse_7" data-name="Ellipse 7" cx="2.36" cy="2.36" r="2.36" transform="translate(16.956 23.3)" fill="#253858"/>
    <path id="Path_214" data-name="Path 214" d="M8.784,46.3a3.389,3.389,0,0,1-2.185.787A3.467,3.467,0,0,1,4.414,46.3,5.8,5.8,0,0,0,2.6,50.43a.5.5,0,0,0,.328.481,12.645,12.645,0,0,0,3.671.5c.459,0,.9-.022,1.289-.044a6.848,6.848,0,0,1,1.792-4.042A5.128,5.128,0,0,0,8.784,46.3Z" transform="translate(0 -17.974)" fill="#253858"/>
    <circle id="Ellipse_8" data-name="Ellipse 8" cx="2.36" cy="2.36" r="2.36" transform="translate(4.239 23.3)" fill="#253858"/>
    <path id="Path_215" data-name="Path 215" d="M37.884,53.2a3.428,3.428,0,0,1-4.37,0A5.893,5.893,0,0,0,31.7,57.352a.5.5,0,0,0,.328.481,13.658,13.658,0,0,0,7.342,0,.473.473,0,0,0,.328-.481A5.725,5.725,0,0,0,37.884,53.2Z" transform="translate(-22.742 -23.367)" fill="#253858"/>
    <circle id="Ellipse_9" data-name="Ellipse 9" cx="2.36" cy="2.36" r="2.36" transform="translate(10.597 24.808)" fill="#253858"/>
  </g>
</svg>
